<?xml version="1.0" encoding="utf-8"?>
<!-- Generator: Adobe Illustrator 27.7.0, SVG Export Plug-In . SVG Version: 6.00 Build 0)  -->
<svg version="1.1" id="Layer_1" xmlns="http://www.w3.org/2000/svg" xmlns:xlink="http://www.w3.org/1999/xlink" x="0px" y="0px"
	 viewBox="0 0 341.9 341.9" style="enable-background:new 0 0 341.9 341.9;" xml:space="preserve">
<style type="text/css">
	.st0{fill:#FFFFFF;}
	.st1{fill:#2EB475;}
</style>
<g>
	<circle class="st0" cx="170.9" cy="170.9" r="170.9"/>
	<g>
		<path class="st1" d="M195.4,31.4c-2.4-2.7-4.7-3.2-5.7-3.3c-1.1-0.1-2.5-0.1-3.6,0.8c-0.6,0.5-1.1,1.2-1.2,2.1
			c-0.1,0.9,0.1,1.5,0.6,2.1c0.8,0.9,2,1.4,4.3,2.6l2.6,1.3c1.5,0.8,3.3,1.8,4.6,3.3c1.9,2.2,2.1,4.9,1.8,7
			c-0.4,3.7-2.1,6.8-4.2,8.5c-3.6,2.9-8.2,2.7-10.6,2.4c-2.6-0.3-4.8-1-6.9-2.3c-1.7-1.1-3.6-3-4.8-4.5l5-5.4c0.8,1,2.1,2.4,3,3.1
			c1.3,1,2.7,1.6,4.4,1.8c1.1,0.1,2.6,0.1,3.9-0.8c0.8-0.5,1.5-1.4,1.6-2.7c0.1-1.2-0.3-2-0.9-2.7c-0.9-0.9-3-2-3.9-2.5l-2.8-1.4
			c-1.6-0.8-3.4-1.8-4.6-3.4c-1.6-2.2-1.6-4.8-1.4-6.5c0.4-3.2,1.7-5.7,4.1-7.7c2.8-2.3,5.9-2.6,9.2-2.2c2.5,0.3,6.4,1.2,10.2,4.8
			L195.4,31.4z"/>
		<path class="st1" d="M217.2,42.3l13.2,5.6l5.3-12.6l7.7,3.2l-14,33.2l-7.7-3.2l5.9-14.1l-13.2-5.6l-5.9,14.1l-7.7-3.2l14-33.2
			l7.7,3.2L217.2,42.3z"/>
		<path class="st1" d="M278.9,71.9c0.3,4.7-1.2,9.7-4.9,13.9c-3.2,3.6-7.8,6.1-13.2,6.3c-4.7,0.2-9.4-1.3-13.9-5.4
			c-5-4.5-6.6-9.6-6.9-13.3c-0.4-4.7,1.2-9.8,4.8-13.7c3.5-3.9,8.7-6.2,13.3-6.4c3.4-0.2,8.7,0.7,14,5.5
			C276.2,62.5,278.6,66.9,278.9,71.9z M259,61.4c-2.2,0.1-5.1,1-7.8,3.9c-2.2,2.4-3.2,5.1-3,8.2c0.2,3.2,1.7,5.5,3.8,7.4
			c2.7,2.5,5.6,3.2,8,3.1c1.9-0.1,4.9-0.8,7.7-3.9c2.5-2.8,3.2-5.8,3.1-8.1c-0.2-2.5-1.4-5.4-3.8-7.6
			C264.6,62.3,261.7,61.2,259,61.4z"/>
		<path class="st1" d="M300.8,95.3c1.6,2.7,3,5.9,2.3,9.6c-0.7,4-3.6,6.2-5.7,7.5c-3.9,2.3-7,2.1-8.9,1.7c-4-1-6.1-4.1-7.4-6.3
			l-2.6-4.4l-10.9,6.5l-4.2-7.1l31-18.4L300.8,95.3z M284.3,100l1.5,2.6c0.6,1,1.6,2.7,3.5,3.2c1,0.3,2.4,0.1,3.8-0.7
			c1.3-0.8,2.1-1.9,2.3-3c0.4-1.7-0.4-3.3-1.2-4.7l-1.4-2.4L284.3,100z"/>
		<path class="st1" d="M310.5,195.3c2.7-2.4,3.2-4.7,3.3-5.7c0.1-1.1,0.1-2.5-0.8-3.6c-0.5-0.6-1.2-1.1-2.1-1.2
			c-0.9-0.1-1.5,0.1-2.1,0.6c-0.9,0.8-1.4,2-2.6,4.3l-1.3,2.6c-0.8,1.5-1.8,3.3-3.3,4.6c-2.2,1.9-4.9,2.1-7,1.8
			c-3.7-0.4-6.8-2.1-8.5-4.2c-2.9-3.6-2.7-8.2-2.4-10.6c0.3-2.6,0.9-4.8,2.3-6.9c1.1-1.7,3-3.6,4.5-4.8l5.4,5c-1,0.8-2.4,2.1-3.1,3
			c-1,1.3-1.6,2.7-1.8,4.4c-0.1,1.1-0.1,2.6,0.8,3.9c0.5,0.8,1.4,1.5,2.7,1.6c1.2,0.1,2-0.3,2.7-0.9c0.9-0.9,2-3,2.5-3.9l1.4-2.8
			c0.8-1.6,1.8-3.4,3.4-4.6c2.2-1.6,4.8-1.6,6.5-1.4c3.2,0.4,5.7,1.7,7.7,4.1c2.3,2.8,2.6,5.9,2.2,9.2c-0.3,2.5-1.2,6.4-4.8,10.2
			L310.5,195.3z"/>
		<path class="st1" d="M299.7,217.1l-5.6,13.2l12.6,5.3l-3.2,7.7l-33.2-14l3.2-7.7l14.1,5.9l5.6-13.2l-14.1-5.9l3.2-7.7l33.2,14
			l-3.2,7.7L299.7,217.1z"/>
		<path class="st1" d="M270,278.9c-4.7,0.3-9.7-1.2-13.9-4.9c-3.6-3.2-6.1-7.8-6.3-13.2c-0.2-4.7,1.3-9.4,5.4-13.9
			c4.5-5,9.6-6.6,13.3-6.9c4.7-0.4,9.8,1.2,13.7,4.8c3.9,3.5,6.2,8.7,6.4,13.3c0.2,3.4-0.7,8.7-5.5,14
			C279.5,276.2,275,278.5,270,278.9z M280.5,258.9c-0.1-2.2-1-5.1-3.9-7.8c-2.4-2.2-5.1-3.2-8.2-3c-3.2,0.2-5.5,1.7-7.4,3.8
			c-2.5,2.7-3.2,5.6-3.1,8c0.1,1.9,0.8,4.9,3.9,7.7c2.8,2.5,5.8,3.2,8.1,3.1c2.5-0.2,5.4-1.4,7.6-3.8
			C279.7,264.5,280.7,261.7,280.5,258.9z"/>
		<path class="st1" d="M246.6,300.7c-2.7,1.6-5.9,3-9.6,2.3c-4-0.8-6.2-3.6-7.5-5.7c-2.3-3.9-2.1-7-1.7-8.9c1-4,4.1-6.1,6.3-7.4
			l4.4-2.6l-6.4-10.9l7.2-4.2l18.4,31L246.6,300.7z M241.9,284.3l-2.6,1.5c-1,0.6-2.7,1.6-3.2,3.4c-0.3,1-0.1,2.4,0.7,3.8
			c0.8,1.3,1.9,2.1,3,2.3c1.7,0.4,3.3-0.4,4.7-1.2l2.4-1.4L241.9,284.3z"/>
		<path class="st1" d="M146.6,310.4c2.4,2.7,4.7,3.2,5.7,3.3c1.1,0.1,2.5,0.1,3.6-0.8c0.6-0.5,1.1-1.2,1.2-2.1
			c0.1-0.9-0.1-1.5-0.6-2.1c-0.8-0.9-2-1.4-4.3-2.6l-2.6-1.3c-1.5-0.8-3.3-1.8-4.6-3.3c-1.9-2.2-2.1-4.9-1.8-7
			c0.4-3.7,2.1-6.8,4.2-8.5c3.6-3,8.2-2.7,10.6-2.4c2.6,0.3,4.8,0.9,6.9,2.3c1.7,1.1,3.6,3,4.8,4.5l-5,5.4c-0.8-1-2.1-2.4-3-3.1
			c-1.3-1-2.7-1.6-4.4-1.8c-1.1-0.1-2.6-0.1-3.9,0.8c-0.8,0.5-1.5,1.4-1.6,2.7c-0.1,1.2,0.3,2,0.9,2.7c0.9,0.9,3,2,3.9,2.5l2.8,1.4
			c1.6,0.8,3.4,1.8,4.7,3.4c1.6,2.2,1.6,4.8,1.4,6.5c-0.4,3.2-1.7,5.7-4.1,7.7c-2.8,2.3-5.9,2.6-9.2,2.2c-2.5-0.3-6.4-1.2-10.2-4.8
			L146.6,310.4z"/>
		<path class="st1" d="M124.8,299.6l-13.2-5.6l-5.3,12.6l-7.7-3.2l13.9-33.2l7.7,3.2l-5.9,14.1l13.2,5.6l5.9-14.1l7.7,3.2
			l-13.9,33.2l-7.7-3.2L124.8,299.6z"/>
		<path class="st1" d="M63.1,270c-0.3-4.7,1.2-9.7,4.9-13.9c3.2-3.6,7.8-6.1,13.2-6.3c4.7-0.2,9.4,1.3,13.9,5.4
			c5,4.5,6.6,9.6,6.9,13.3c0.4,4.7-1.2,9.8-4.8,13.7c-3.5,3.9-8.7,6.2-13.3,6.4c-3.4,0.2-8.7-0.7-14-5.5
			C65.8,279.4,63.4,275,63.1,270z M83,280.5c2.2-0.1,5.1-1,7.8-3.9c2.2-2.5,3.2-5.1,3-8.2c-0.2-3.2-1.7-5.5-3.8-7.4
			c-2.7-2.5-5.6-3.2-8-3.1c-1.9,0.1-4.9,0.8-7.7,3.9c-2.5,2.8-3.2,5.8-3.1,8.1c0.2,2.5,1.4,5.4,3.8,7.6
			C77.4,279.6,80.3,280.6,83,280.5z"/>
		<path class="st1" d="M41.1,246.6c-1.6-2.7-3-5.9-2.3-9.6c0.7-4,3.6-6.2,5.7-7.5c3.9-2.3,7-2.1,8.9-1.7c4,1,6.1,4.1,7.4,6.3
			l2.6,4.4l10.9-6.5l4.3,7.1l-31,18.4L41.1,246.6z M57.6,241.9l-1.5-2.6c-0.6-1-1.6-2.7-3.5-3.2c-1-0.3-2.4-0.1-3.8,0.7
			c-1.3,0.8-2.1,1.9-2.3,3c-0.4,1.7,0.4,3.3,1.2,4.7l1.4,2.4L57.6,241.9z"/>
		<path class="st1" d="M31.3,146.6c-2.7,2.4-3.2,4.7-3.3,5.7c-0.1,1.1-0.1,2.5,0.8,3.6c0.5,0.6,1.2,1.1,2.1,1.2
			c0.9,0.1,1.5-0.1,2.1-0.6c0.9-0.8,1.4-2,2.6-4.3l1.3-2.6c0.8-1.5,1.8-3.3,3.3-4.6c2.2-1.9,4.9-2.1,7-1.8c3.7,0.4,6.8,2.1,8.5,4.2
			c3,3.6,2.7,8.2,2.5,10.6c-0.3,2.6-0.9,4.8-2.3,6.9c-1.1,1.7-3,3.6-4.5,4.8l-5.4-5c1-0.8,2.4-2.1,3.1-3c1-1.3,1.6-2.7,1.8-4.4
			c0.1-1.1,0.1-2.6-0.8-3.9c-0.5-0.8-1.4-1.5-2.7-1.6c-1.2-0.1-2,0.3-2.7,0.9c-0.9,0.9-2,3-2.5,4l-1.4,2.8c-0.8,1.6-1.8,3.4-3.4,4.7
			c-2.2,1.6-4.8,1.6-6.5,1.4c-3.2-0.4-5.7-1.7-7.7-4.1c-2.3-2.8-2.6-5.9-2.2-9.2c0.3-2.5,1.2-6.4,4.8-10.2L31.3,146.6z"/>
		<path class="st1" d="M42.2,124.8l5.6-13.2l-12.7-5.3l3.2-7.7l33.2,13.9l-3.2,7.7l-14.1-5.9l-5.6,13.2l14.1,5.9l-3.2,7.7
			l-33.2-13.9l3.2-7.7L42.2,124.8z"/>
		<path class="st1" d="M71.8,63.1c4.7-0.3,9.7,1.2,13.9,4.9c3.6,3.2,6.1,7.8,6.3,13.2c0.2,4.7-1.3,9.4-5.4,13.9
			c-4.5,5-9.6,6.6-13.3,6.9c-4.7,0.4-9.8-1.2-13.7-4.8c-3.9-3.5-6.2-8.7-6.4-13.3c-0.2-3.4,0.7-8.7,5.5-14
			C62.3,65.8,66.7,63.4,71.8,63.1z M61.3,83c0.1,2.2,1,5.1,3.9,7.8c2.4,2.2,5.1,3.2,8.2,3c3.2-0.2,5.5-1.7,7.4-3.8
			c2.5-2.7,3.2-5.6,3.1-8c-0.1-1.9-0.8-4.9-3.9-7.7c-2.8-2.5-5.8-3.2-8.1-3.1c-2.5,0.2-5.4,1.4-7.6,3.8C62.1,77.4,61.1,80.3,61.3,83
			z"/>
		<path class="st1" d="M95.2,41.1c2.7-1.6,5.9-3,9.6-2.3c4,0.7,6.2,3.6,7.5,5.7c2.3,3.9,2.1,7,1.7,8.9c-1,4-4.1,6.1-6.3,7.4
			l-4.4,2.6l6.5,10.9l-7.1,4.3l-18.4-31L95.2,41.1z M99.9,57.6l2.6-1.5c1-0.6,2.7-1.6,3.2-3.5c0.3-1,0.1-2.4-0.7-3.8
			c-0.8-1.3-1.9-2.1-3-2.3c-1.7-0.4-3.3,0.4-4.7,1.2l-2.4,1.4L99.9,57.6z"/>
	</g>
</g>
</svg>
